<?xml version="1.0" encoding="UTF-8" standalone="no"?>
<!-- Created with Inkscape (http://www.inkscape.org/) -->

<svg
   xmlns:dc="http://purl.org/dc/elements/1.1/"
   xmlns:cc="http://creativecommons.org/ns#"
   xmlns:rdf="http://www.w3.org/1999/02/22-rdf-syntax-ns#"
   xmlns:svg="http://www.w3.org/2000/svg"
   xmlns="http://www.w3.org/2000/svg"
   xmlns:sodipodi="http://sodipodi.sourceforge.net/DTD/sodipodi-0.dtd"
   xmlns:inkscape="http://www.inkscape.org/namespaces/inkscape"
   width="210mm"
   height="297mm"
   viewBox="0 0 744.09448819 1052.3622047"
   id="svg4309"
   version="1.1"
   inkscape:version="0.91 r13725"
   sodipodi:docname="FailedCianide.svg">
  <defs
     id="defs4311">
    <inkscape:path-effect
       effect="powerstroke"
       id="path-effect4882"
       is_visible="true"
       offset_points="0,0.5"
       sort_points="true"
       interpolator_type="CubicBezierJohan"
       interpolator_beta="0.2"
       start_linecap_type="zerowidth"
       linejoin_type="round"
       miter_limit="4"
       end_linecap_type="zerowidth"
       cusp_linecap_type="round" />
  </defs>
  <sodipodi:namedview
     id="base"
     pagecolor="#ffffff"
     bordercolor="#666666"
     borderopacity="1.0"
     inkscape:pageopacity="0.0"
     inkscape:pageshadow="2"
     inkscape:zoom="7.9195959"
     inkscape:cx="183.27029"
     inkscape:cy="853.94148"
     inkscape:document-units="px"
     inkscape:current-layer="layer1"
     showgrid="false"
     inkscape:window-width="1920"
     inkscape:window-height="1017"
     inkscape:window-x="-8"
     inkscape:window-y="-8"
     inkscape:window-maximized="1" />
  <metadata
     id="metadata4314">
    <rdf:RDF>
      <cc:Work
         rdf:about="">
        <dc:format>image/svg+xml</dc:format>
        <dc:type
           rdf:resource="http://purl.org/dc/dcmitype/StillImage" />
        <dc:title></dc:title>
      </cc:Work>
    </rdf:RDF>
  </metadata>
  <g
     inkscape:label="Layer 1"
     inkscape:groupmode="layer"
     id="layer1">
    <rect
       style="opacity:1;fill:#800000;fill-opacity:1;stroke:#000000;stroke-width:7;stroke-linecap:round;stroke-miterlimit:4;stroke-dasharray:none;stroke-opacity:1"
       id="rect4924"
       width="52.527931"
       height="115.15739"
       x="468.63077"
       y="706.23792"
       transform="matrix(0.98283757,-0.18447306,0.18447306,0.98283757,0,0)" />
    <rect
       style="opacity:1;fill:#800000;fill-opacity:1;stroke:#000000;stroke-width:6.83700609;stroke-linecap:round;stroke-miterlimit:4;stroke-dasharray:none;stroke-opacity:1"
       id="rect4926"
       width="52.690926"
       height="104.71378"
       x="783.70734"
       y="462.40182"
       transform="matrix(0.98419619,0.1770815,-0.1770815,0.98419619,0,0)" />
    <path
       style="opacity:1;fill:#808000;fill-opacity:1;stroke:#000000;stroke-width:1.08476472;stroke-miterlimit:4;stroke-dasharray:none;stroke-opacity:1"
       d="m 124.69434,153.94238 22.93502,0 c 3.03272,19.34435 5.54071,34.85036 4.64899,49.58925 l -33.47274,0 c -2.40204,-17.42518 3.93506,-32.18746 5.88873,-49.58925 z"
       id="rect4859"
       inkscape:connector-curvature="0"
       sodipodi:nodetypes="ccccc" />
    <circle
       style="opacity:1;fill:#ffaaaa;fill-opacity:1;stroke:#000000;stroke-width:1.08476472;stroke-miterlimit:4;stroke-dasharray:none;stroke-opacity:1"
       id="path4857"
       cx="136.35443"
       cy="138.18443"
       r="19.680733" />
    <ellipse
       style="opacity:1;fill:#000000;fill-opacity:1;stroke:#000000;stroke-width:1.08476472;stroke-miterlimit:4;stroke-dasharray:none;stroke-opacity:1"
       id="path4862"
       cx="129.21686"
       cy="138.25639"
       rx="2.0145631"
       ry="3.5642271" />
    <ellipse
       ry="3.5642271"
       rx="2.0145631"
       cy="138.25639"
       cx="141.9241"
       id="ellipse4864"
       style="opacity:1;fill:#000000;fill-opacity:1;stroke:#000000;stroke-width:1.08476472;stroke-miterlimit:4;stroke-dasharray:none;stroke-opacity:1" />
    <path
       style="fill:none;fill-rule:evenodd;stroke:#000000;stroke-width:1.08476472;stroke-linecap:round;stroke-linejoin:miter;stroke-miterlimit:4;stroke-dasharray:none;stroke-opacity:1"
       d="m 139.50946,131.22199 c 0.29967,-2.63443 6.8846,1.7278 6.8846,1.7278"
       id="path4874"
       inkscape:connector-curvature="0"
       sodipodi:nodetypes="cc" />
    <path
       style="fill:none;fill-rule:evenodd;stroke:#000000;stroke-width:1.08476472;stroke-linecap:round;stroke-linejoin:miter;stroke-miterlimit:4;stroke-dasharray:none;stroke-opacity:1"
       d="m 133.33354,130.90658 c 0.21294,-2.61632 -6.17491,0.13819 -6.17491,0.13819"
       id="path4876"
       inkscape:connector-curvature="0"
       sodipodi:nodetypes="cc" />
    <path
       style="fill:#000000;fill-rule:evenodd;stroke:#000000;stroke-width:0.21695295px;stroke-linecap:butt;stroke-linejoin:miter;stroke-opacity:1"
       d="m 129.30782,149.29339 c -0.38339,-0.84481 0.84837,-1.92526 1.74337,-2.16953 3.91506,-1.06852 12.8125,0.49952 11.39003,4.30032 -0.59866,1.5996 -3.12956,-1.44525 -4.80396,-1.78211 -2.72433,-0.54809 -7.18105,2.18185 -8.32944,-0.34868 z"
       id="path4878"
       inkscape:connector-curvature="0"
       sodipodi:nodetypes="aaaaa" />
    <path
       style="fill:#ffff00;fill-rule:evenodd;stroke:#000000;stroke-width:1.08476472;stroke-linecap:butt;stroke-linejoin:miter;stroke-miterlimit:4;stroke-dasharray:none;stroke-opacity:1"
       d="m 142.2489,119.71632 -3.72564,6.9034 0.10958,-6.35551 -6.13636,5.80762 -0.32873,-5.58846 -6.13636,7.01298 -1.20535,-3.28734 -3.9448,8.32791 -1.42452,-2.84902 -0.9862,9.31411 -1.75324,-2.73944 -0.65747,8.43749 -2.41071,-8.10876 2.19156,-2.52029 -2.84903,1.20536 4.49269,-6.35551 -3.61606,1.09577 7.78002,-7.23213 -2.9586,-0.76704 10.40989,-3.50649 -2.73944,-1.42451 9.09495,1.09577 -1.86282,-3.9448 6.13635,3.50649 2.73945,-3.61606 z"
       id="path4888"
       inkscape:connector-curvature="0" />
    <path
       style="opacity:1;fill:#ff6600;fill-opacity:1;stroke:#000000;stroke-width:4.22795486;stroke-linecap:round;stroke-miterlimit:4;stroke-dasharray:none;stroke-opacity:1"
       id="path4939"
       sodipodi:type="arc"
       sodipodi:cx="629.32501"
       sodipodi:cy="-808.49463"
       sodipodi:rx="30.884405"
       sodipodi:ry="21.311102"
       sodipodi:start="0"
       sodipodi:end="3.1415927"
       d="m 660.20942,-808.49463 a 30.884405,21.311102 0 0 1 -15.44221,18.45596 30.884405,21.311102 0 0 1 -30.8844,0 30.884405,21.311102 0 0 1 -15.4422,-18.45596 l 30.8844,0 z"
       transform="scale(1,-1)" />
    <g
       id="g4961"
       inkscape:transform-center-x="4.6895455"
       inkscape:transform-center-y="16.432213"
       transform="matrix(0.06353288,-0.20744194,0.20744194,0.06353288,2.2469328,191.3355)">
      <path
         sodipodi:nodetypes="csscc"
         inkscape:connector-curvature="0"
         id="rect4941"
         d="m 164.65486,482.63617 c 0,0 86.01611,0.40567 134.3503,0 10.77458,-0.0904 10.77458,32.41531 0,32.32488 -48.33419,-0.40567 -134.3503,0 -134.3503,0 z"
         style="opacity:1;fill:#808000;fill-opacity:1;stroke:#000000;stroke-width:5;stroke-linecap:round;stroke-linejoin:round;stroke-miterlimit:4;stroke-dasharray:none;stroke-opacity:1" />
      <path
         sodipodi:nodetypes="sssss"
         inkscape:connector-curvature="0"
         id="path4945"
         d="m 176.77669,500.31384 c 0,11.43678 -9.04521,20.70813 -20.20305,20.70813 -11.15784,0 -20.20305,-9.27135 -20.20305,-20.70813 0,-11.43678 9.04521,-20.70813 20.20305,-20.70813 11.15784,0 20.20305,9.27135 20.20305,20.70813 z"
         style="opacity:1;fill:#ffaaaa;fill-opacity:1;stroke:#000000;stroke-width:5;stroke-linecap:round;stroke-linejoin:round;stroke-miterlimit:4;stroke-dasharray:none;stroke-opacity:1" />
    </g>
    <g
       id="g4965"
       inkscape:transform-center-x="-3.6420777"
       inkscape:transform-center-y="16.154963"
       transform="matrix(0.05272467,0.21044879,-0.21044879,0.05272467,231.28145,47.870861)">
      <path
         style="opacity:1;fill:#808000;fill-opacity:1;stroke:#000000;stroke-width:5;stroke-linecap:round;stroke-linejoin:round;stroke-miterlimit:4;stroke-dasharray:none;stroke-opacity:1"
         d="m 543.96686,482.63617 c 0,0 -86.01611,0.40567 -134.3503,0 -10.77458,-0.0904 -10.77458,32.41531 0,32.32488 48.33419,-0.40567 134.3503,0 134.3503,0 z"
         id="path4957"
         inkscape:connector-curvature="0"
         sodipodi:nodetypes="csscc" />
      <path
         style="opacity:1;fill:#ffaaaa;fill-opacity:1;stroke:#000000;stroke-width:5;stroke-linecap:round;stroke-linejoin:round;stroke-miterlimit:4;stroke-dasharray:none;stroke-opacity:1"
         d="m 531.84503,500.31384 c 0,11.43678 9.04521,20.70813 20.20305,20.70813 11.15784,0 20.20305,-9.27135 20.20305,-20.70813 0,-11.43678 -9.04521,-20.70813 -20.20305,-20.70813 -11.15784,0 -20.20305,9.27135 -20.20305,20.70813 z"
         id="path4959"
         inkscape:connector-curvature="0"
         sodipodi:nodetypes="sssss" />
    </g>
    <path
       transform="scale(1,-1)"
       d="m 702.76286,-848.58301 a 30.498392,30.181967 0 0 1 -15.2492,26.13835 30.498392,30.181967 0 0 1 -30.49839,0 30.498392,30.181967 0 0 1 -15.2492,-26.13835 l 30.4984,0 z"
       sodipodi:end="3.1415927"
       sodipodi:start="0"
       sodipodi:ry="30.181967"
       sodipodi:rx="30.498392"
       sodipodi:cy="-848.58301"
       sodipodi:cx="672.26447"
       sodipodi:type="arc"
       id="path4930"
       style="opacity:1;fill:#803300;fill-opacity:1;stroke:#000000;stroke-width:5;stroke-linecap:round;stroke-miterlimit:4;stroke-dasharray:none;stroke-opacity:1" />
    <ellipse
       style="opacity:1;fill:#803300;fill-opacity:1;stroke:#000000;stroke-width:7.35140514;stroke-miterlimit:4;stroke-dasharray:none;stroke-opacity:1"
       id="path4973"
       cx="969.66693"
       cy="176.89427"
       rx="29.633951"
       ry="35.189789"
       transform="matrix(0.82404445,0.56652515,-0.56652515,0.82404445,0,0)"
       inkscape:transform-center-x="2.717405"
       inkscape:transform-center-y="-1.6791271" />
    <path
       sodipodi:nodetypes="cccccc"
       inkscape:connector-curvature="0"
       id="path4985"
       d="m 136.28429,203.39996 0.37452,30.52246 4.49429,1e-5 5.05608,-15.26124 5.05608,-15.26123 z"
       style="fill:#800000;fill-rule:evenodd;stroke:#000000;stroke-width:1.00371504;stroke-linecap:butt;stroke-linejoin:miter;stroke-miterlimit:4;stroke-dasharray:none;stroke-opacity:1" />
    <path
       sodipodi:nodetypes="ccccc"
       inkscape:connector-curvature="0"
       id="path4987"
       d="m 136.28429,237.21622 16.10454,0.65876 -11.39476,-3.8616 -4.33526,-0.31054 z"
       style="fill:#ff6600;fill-rule:evenodd;stroke:#000000;stroke-width:1.00371504;stroke-linecap:butt;stroke-linejoin:miter;stroke-miterlimit:4;stroke-dasharray:none;stroke-opacity:1" />
    <path
       style="fill:#800000;fill-rule:evenodd;stroke:#000000;stroke-width:1.00371504;stroke-linecap:butt;stroke-linejoin:miter;stroke-miterlimit:4;stroke-dasharray:none;stroke-opacity:1"
       d="m 135.10275,203.70989 -0.37452,30.52247 -4.4943,0 -5.05607,-15.26124 -5.05608,-15.26123 z"
       id="path4989"
       inkscape:connector-curvature="0"
       sodipodi:nodetypes="cccccc" />
    <path
       style="fill:#ff6600;fill-rule:evenodd;stroke:#000000;stroke-width:1.00371504;stroke-linecap:butt;stroke-linejoin:miter;stroke-miterlimit:4;stroke-dasharray:none;stroke-opacity:1"
       d="m 135.10275,237.52615 -16.10454,0.65876 11.39475,-3.8616 4.33527,-0.31054 z"
       id="path4991"
       inkscape:connector-curvature="0"
       sodipodi:nodetypes="ccccc" />
    <path
       sodipodi:nodetypes="ccccc"
       inkscape:connector-curvature="0"
       id="path4995"
       d="m 201.97101,153.94238 22.93502,0 c 3.03272,19.34435 5.54071,34.85036 4.64899,49.58925 l -33.47274,0 c -2.40204,-17.42518 3.93506,-32.18746 5.88873,-49.58925 z"
       style="opacity:1;fill:#808000;fill-opacity:1;stroke:#000000;stroke-width:1.08476472;stroke-miterlimit:4;stroke-dasharray:none;stroke-opacity:1" />
    <circle
       r="19.680733"
       cy="138.18443"
       cx="213.6311"
       id="circle4997"
       style="opacity:1;fill:#ffaaaa;fill-opacity:1;stroke:#000000;stroke-width:1.08476472;stroke-miterlimit:4;stroke-dasharray:none;stroke-opacity:1" />
    <ellipse
       ry="3.5642271"
       rx="2.0145631"
       cy="138.25639"
       cx="206.49353"
       id="ellipse4999"
       style="opacity:1;fill:#000000;fill-opacity:1;stroke:#000000;stroke-width:1.08476472;stroke-miterlimit:4;stroke-dasharray:none;stroke-opacity:1" />
    <ellipse
       style="opacity:1;fill:#000000;fill-opacity:1;stroke:#000000;stroke-width:1.08476472;stroke-miterlimit:4;stroke-dasharray:none;stroke-opacity:1"
       id="ellipse5001"
       cx="219.20078"
       cy="138.25639"
       rx="2.0145631"
       ry="3.5642271" />
    <path
       sodipodi:nodetypes="cc"
       inkscape:connector-curvature="0"
       id="path5003"
       d="m 216.78613,131.22199 c 0.29967,-2.63443 6.8846,1.7278 6.8846,1.7278"
       style="fill:none;fill-rule:evenodd;stroke:#000000;stroke-width:1.08476472;stroke-linecap:round;stroke-linejoin:miter;stroke-miterlimit:4;stroke-dasharray:none;stroke-opacity:1" />
    <path
       sodipodi:nodetypes="cc"
       inkscape:connector-curvature="0"
       id="path5005"
       d="m 210.61021,130.90658 c 0.21294,-2.61632 -6.17491,0.13819 -6.17491,0.13819"
       style="fill:none;fill-rule:evenodd;stroke:#000000;stroke-width:1.08476472;stroke-linecap:round;stroke-linejoin:miter;stroke-miterlimit:4;stroke-dasharray:none;stroke-opacity:1" />
    <path
       sodipodi:nodetypes="aaaaa"
       inkscape:connector-curvature="0"
       id="path5007"
       d="m 206.58449,149.29339 c -0.38339,-0.84481 0.84837,-1.92526 1.74337,-2.16953 3.91506,-1.06852 12.8125,0.49952 11.39003,4.30032 -0.59866,1.5996 -3.12956,-1.44525 -4.80396,-1.78211 -2.72433,-0.54809 -7.18105,2.18185 -8.32944,-0.34868 z"
       style="fill:#000000;fill-rule:evenodd;stroke:#000000;stroke-width:0.21695295px;stroke-linecap:butt;stroke-linejoin:miter;stroke-opacity:1" />
    <path
       inkscape:connector-curvature="0"
       id="path5009"
       d="m 219.52557,119.71632 -3.72564,6.9034 0.10958,-6.35551 -6.13636,5.80762 -0.32873,-5.58846 -6.13636,7.01298 -1.20535,-3.28734 -3.9448,8.32791 -1.42452,-2.84902 -0.9862,9.31411 -1.75324,-2.73944 -0.65747,8.43749 -2.41071,-8.10876 2.19156,-2.52029 -2.84903,1.20536 4.49269,-6.35551 -3.61606,1.09577 7.78002,-7.23213 -2.9586,-0.76704 10.40989,-3.50649 -2.73944,-1.42451 9.09495,1.09577 -1.86282,-3.9448 6.13635,3.50649 2.73945,-3.61606 z"
       style="fill:#ffff00;fill-rule:evenodd;stroke:#000000;stroke-width:1.08476472;stroke-linecap:butt;stroke-linejoin:miter;stroke-miterlimit:4;stroke-dasharray:none;stroke-opacity:1" />
    <g
       transform="matrix(0.06353288,-0.20744194,0.20744194,0.06353288,79.523603,191.3355)"
       inkscape:transform-center-y="16.432213"
       inkscape:transform-center-x="4.6895455"
       id="g5011">
      <path
         style="opacity:1;fill:#808000;fill-opacity:1;stroke:#000000;stroke-width:5;stroke-linecap:round;stroke-linejoin:round;stroke-miterlimit:4;stroke-dasharray:none;stroke-opacity:1"
         d="m 164.65486,482.63617 c 0,0 86.01611,0.40567 134.3503,0 10.77458,-0.0904 10.77458,32.41531 0,32.32488 -48.33419,-0.40567 -134.3503,0 -134.3503,0 z"
         id="path5013"
         inkscape:connector-curvature="0"
         sodipodi:nodetypes="csscc" />
      <path
         style="opacity:1;fill:#ffaaaa;fill-opacity:1;stroke:#000000;stroke-width:5;stroke-linecap:round;stroke-linejoin:round;stroke-miterlimit:4;stroke-dasharray:none;stroke-opacity:1"
         d="m 176.77669,500.31384 c 0,11.43678 -9.04521,20.70813 -20.20305,20.70813 -11.15784,0 -20.20305,-9.27135 -20.20305,-20.70813 0,-11.43678 9.04521,-20.70813 20.20305,-20.70813 11.15784,0 20.20305,9.27135 20.20305,20.70813 z"
         id="path5015"
         inkscape:connector-curvature="0"
         sodipodi:nodetypes="sssss" />
    </g>
    <g
       transform="matrix(0.05272467,0.21044879,-0.21044879,0.05272467,308.55812,47.870861)"
       inkscape:transform-center-y="16.154963"
       inkscape:transform-center-x="-3.6420777"
       id="g5017">
      <path
         sodipodi:nodetypes="csscc"
         inkscape:connector-curvature="0"
         id="path5019"
         d="m 543.96686,482.63617 c 0,0 -86.01611,0.40567 -134.3503,0 -10.77458,-0.0904 -10.77458,32.41531 0,32.32488 48.33419,-0.40567 134.3503,0 134.3503,0 z"
         style="opacity:1;fill:#808000;fill-opacity:1;stroke:#000000;stroke-width:5;stroke-linecap:round;stroke-linejoin:round;stroke-miterlimit:4;stroke-dasharray:none;stroke-opacity:1" />
      <path
         sodipodi:nodetypes="sssss"
         inkscape:connector-curvature="0"
         id="path5021"
         d="m 531.84503,500.31384 c 0,11.43678 9.04521,20.70813 20.20305,20.70813 11.15784,0 20.20305,-9.27135 20.20305,-20.70813 0,-11.43678 -9.04521,-20.70813 -20.20305,-20.70813 -11.15784,0 -20.20305,9.27135 -20.20305,20.70813 z"
         style="opacity:1;fill:#ffaaaa;fill-opacity:1;stroke:#000000;stroke-width:5;stroke-linecap:round;stroke-linejoin:round;stroke-miterlimit:4;stroke-dasharray:none;stroke-opacity:1" />
    </g>
    <path
       style="fill:#800000;fill-rule:evenodd;stroke:#000000;stroke-width:1.00371504;stroke-linecap:butt;stroke-linejoin:miter;stroke-miterlimit:4;stroke-dasharray:none;stroke-opacity:1"
       d="m 213.56096,203.39996 0.37452,30.52246 4.49429,1e-5 5.05608,-15.26124 5.05608,-15.26123 z"
       id="path5023"
       inkscape:connector-curvature="0"
       sodipodi:nodetypes="cccccc" />
    <path
       sodipodi:nodetypes="ccccccc"
       inkscape:connector-curvature="0"
       id="path5027"
       d="m 212.37942,203.70989 -1.26055,15.26124 0.88603,15.26123 -4.4943,0 -7.07638,-14.37736 -3.03577,-16.14511 z"
       style="fill:#550000;fill-rule:evenodd;stroke:#000000;stroke-width:1.00371504;stroke-linecap:butt;stroke-linejoin:miter;stroke-miterlimit:4;stroke-dasharray:none;stroke-opacity:1" />
    <path
       sodipodi:nodetypes="ccccc"
       inkscape:connector-curvature="0"
       id="path5029"
       d="m 212.37942,237.52615 -16.10454,0.65876 11.39475,-3.8616 4.33527,-0.31054 z"
       style="fill:#ff6600;fill-rule:evenodd;stroke:#000000;stroke-width:1.00371504;stroke-linecap:butt;stroke-linejoin:miter;stroke-miterlimit:4;stroke-dasharray:none;stroke-opacity:1" />
  </g>
</svg>
